<svg aria-hidden="true" style="position: absolute; width: 0; height: 0; overflow: hidden;" version="1.1" xmlns="http://www.w3.org/2000/svg" xmlns:xlink="http://www.w3.org/1999/xlink">
<defs>
<symbol id="icon-designer-news" viewBox="0 0 32 32">
<path fill="#c4c4c4" style="fill: var(--color1, #c4c4c4)" d="M16 32c8.837 0 16-7.163 16-16s-7.163-16-16-16c-8.837 0-16 7.163-16 16s7.163 16 16 16z"></path>
<path fill="#828282" style="fill: var(--color2, #828282)" d="M4.839 22.091l13.417 9.981 33.001 2.075-25.288-23.406v5.336l-2.359-1.69-4.39-3.646-2.614 4.26-3.674-3.067-6.461-0.41-1.632 10.567z"></path>
<path fill="#fff" style="fill: var(--color3, #fff)" d="M14.855 16.395c0-3.391-2.084-5.691-6.055-5.691h-3.921v11.415h4.004c3.855 0 5.972-2.332 5.972-5.724zM12.009 16.411c0 2.448-1.257 3.507-3.276 3.507h-1.026v-7.014h1.026c1.935 0 3.276 1.108 3.276 3.507zM26.121 22.119v-11.415h-2.63v6.386l-4.202-6.386h-2.746v11.415h2.63v-6.832l4.5 6.832 2.448 0z"></path>
</symbol>
<symbol id="icon-designer-technology" viewBox="0 0 110 32">
<path fill="#333" style="fill: var(--color4, #333)" d="M39.415 14.779c2.777 0 3.703-1.859 3.703-4.415 0-4.938-3.645-4.531-3.934-4.531h-1.331v8.947h1.562zM39.589 13.21v-5.752c1.446 0 1.794 1.801 1.794 2.905s-0.406 2.905-1.794 2.847zM48.325 5.832v8.947h3.587v-1.627h-1.794v-2.034h1.562v-1.685h-1.562v-1.917h1.794v-1.684h-3.587zM60.879 6.18c-0.463-0.29-0.983-0.465-1.505-0.465-1.562 0-2.371 1.22-2.371 2.614 0 1.337 0.636 1.975 1.678 2.673 0.463 0.348 1.041 0.581 1.041 1.278 0 0.581-0.463 0.988-1.041 0.988-0.522 0-0.925-0.174-1.331-0.465v1.685c0.405 0.29 1.041 0.406 1.505 0.406 1.678 0 2.546-1.162 2.546-2.731 0-2.44-2.662-2.498-2.662-4.009 0-0.523 0.348-0.871 0.868-0.871s0.925 0.29 1.272 0.581v-1.684h-0.001zM66.723 14.779h1.737v-8.947h-1.737v8.947zM76.848 9.84v1.627h1.099c0 0.639-0.115 1.801-1.041 1.801-1.273 0-1.331-2.033-1.331-2.963 0-0.813 0.115-3.021 1.331-2.963 0.636 0 0.81 0.697 0.867 1.162l1.736-0.697c-0.405-1.22-1.273-2.092-2.662-2.092-2.487 0-3.124 2.614-3.124 4.648 0 1.975 0.752 4.531 3.124 4.531 2.43 0 2.893-2.498 2.893-4.357v-0.697h-2.893zM84.948 5.832v8.947h1.735v-4.474l-0.115-0.871 0.058-0.058 2.141 5.403h1.678v-8.947h-1.735v4.067c0 0.407 0 0.872 0.115 1.337l-2.198-5.403-1.679-0.001zM95.941 5.832v8.947h3.586v-1.627h-1.851v-2.034h1.62v-1.685h-1.62v-1.917h1.794v-1.684h-3.529zM106.586 14.779v-4.125h0.058l1.504 4.125h1.852l-1.504-4.067c0.867-0.465 1.214-1.336 1.214-2.324 0-2.382-1.967-2.556-3.124-2.556h-1.735v8.947l1.735 0.001zM106.586 7.342h0.232c0.926-0.058 1.215 0.465 1.215 1.104 0 0.697-0.348 1.278-1.1 1.278l-0.347-0.058v-2.324zM37.968 20.356v0.697h0.984v5.519h0.81v-5.519h0.925v-0.697h-2.719zM45.316 20.356v6.216h2.257v-0.698h-1.446v-2.149h1.272v-0.697h-1.272v-1.975h1.446v-0.697h-2.257zM54.747 20.473c-0.232-0.174-0.405-0.174-0.694-0.174-1.678 0-1.851 2.033-1.851 3.253 0 1.337 0.232 3.137 1.91 3.137 0.232 0 0.463-0.059 0.637-0.174v-0.755c-0.116 0.115-0.289 0.115-0.463 0.115-1.157 0-1.215-1.568-1.215-2.381 0-0.755 0-2.44 1.157-2.44 0.173 0 0.347 0.058 0.521 0.174v-0.755h-0.001zM59.549 20.356v6.216h0.867v-3.079h1.215v3.079h0.811v-6.216h-0.811v2.44h-1.215v-2.44h-0.867zM68.285 21.809l1.447 4.763h0.752v-6.216h-0.81v2.208l0.231 2.497h-0.058l-1.447-4.705h-0.752v6.216h0.811v-2.266l-0.116-2.092-0.058-0.406zM77.137 20.298c-1.62 0-1.62 2.033-1.62 3.195 0 1.104 0 3.195 1.62 3.195s1.62-2.092 1.62-3.195c0-1.162 0-3.195-1.62-3.195zM77.137 21.054c0.636 0 0.752 1.103 0.752 2.44 0 1.278-0.116 2.381-0.752 2.381s-0.752-1.103-0.752-2.381c0-1.336 0.116-2.44 0.752-2.44zM83.733 20.356v6.216h2.257v-0.698h-1.388v-5.518h-0.868zM92.122 20.298c-1.619 0-1.619 2.033-1.619 3.195 0 1.104 0 3.195 1.619 3.195 1.563 0 1.62-2.092 1.62-3.195 0-1.162-0.058-3.195-1.62-3.195zM92.122 21.054c0.637 0 0.752 1.103 0.752 2.44 0 1.278-0.115 2.381-0.752 2.381-0.636 0-0.752-1.103-0.752-2.381-0.001-1.336 0.116-2.44 0.752-2.44zM100.222 23.32v0.697h0.636v0.348c0 1.453-0.347 1.511-0.693 1.511-0.349 0-0.695-0.232-0.695-2.381 0-1.511 0.058-2.44 0.695-2.44 0.52 0 0.636 0.406 0.693 0.813l0.811-0.348c-0.232-0.814-0.637-1.22-1.504-1.22-1.447 0-1.563 1.452-1.563 3.195 0 1.742 0.173 3.195 1.62 3.195 1.678 0 1.505-2.092 1.505-3.312v-0.058l-1.505-0.001zM106.181 20.356l1.273 3.544v2.673h0.81v-2.673l1.158-3.544h-0.869l-0.578 2.092-0.115 0.813-0.752-2.905h-0.927z"></path>
<path fill="#828282" style="fill: var(--color2, #828282)" d="M7.536 25.875c-0.232-0.174-1.91-2.555-2.257-4.532 13.307 12.492 28.986 1.627 24.416-7.726-0.058-0.174-0.173-0.348-0.348-0.581 0-0.348-0.115-1.394-0.173-1.743l0.405 0.406c6.248 7.437 0.925 15.86-7.058 18.068-6.827 1.569-11.571-0.871-14.985-3.892z"></path>
<path fill="#828282" style="fill: var(--color2, #828282)" d="M6.783 11.816c-1.331 1.511-1.678 3.37-1.678 3.37 1.157 5.926 6.307 7.204 6.307 7.204-5.497-4.183-4.629-10.574-4.629-10.574z"></path>
<path fill="#828282" style="fill: var(--color2, #828282)" d="M5.627 5.483c-2.951 1.801-3.992 4.822-3.529 6.797-0.81 1.511-0.984 1.918-1.62 4.125-1.909-6.856 3.009-10.573 5.149-10.922z"></path>
<path fill="#c4c4c4" style="fill: var(--color1, #c4c4c4)" d="M27.034 22.389c-1.041 0.93-1.678 1.453-3.009 2.382 8.91-17.313-9.026-28.003-15.911-18.417-0.232 0.116-2.141 1.046-2.661 1.452 4.802-13.247 22.448-8.076 24.126 3.893 0.347 3.37 0.173 6.391-2.546 10.69z"></path>
<path fill="#c4c4c4" style="fill: var(--color1, #c4c4c4)" d="M19.628 5.309c0.868 0.348 1.562 0.988 2.256 1.685-12.613-2.847-18.052 4.648-18.109 10.748-0.058 7.029 6.133 14.582 14.637 12.433 0.058 0 0.463-0.116 0.694-0.233 0.925-0.116 1.678-0.174 2.314-0.291-0.116 0.059-0.232 0.174-0.232 0.174-10.992 6.507-21.638-2.731-21.175-12.665 1.041-8.424 9.372-15.106 19.613-11.852z"></path>
<path fill="#828282" style="fill: var(--color2, #828282)" d="M7.536 25.875c-0.232-0.174-1.91-2.555-2.257-4.532 5.844 5.461 12.15 6.45 16.952 5.055 0.347 1.22 0.694 2.033 0.289 3.369-6.827 1.569-11.571-0.871-14.985-3.892z"></path>
</symbol>
<symbol id="icon-dots" viewBox="0 0 416 32">
<path fill="#828282" style="fill: var(--color2, #828282)" d="M32 16c0 8.837-7.163 16-16 16s-16-7.163-16-16c0-8.837 7.163-16 16-16s16 7.163 16 16z"></path>
<path fill="#979595" style="fill: var(--color5, #979595)" d="M96 16c0 8.837-7.163 16-16 16s-16-7.163-16-16c0-8.837 7.163-16 16-16s16 7.163 16 16z"></path>
<path fill="#b2b0b0" style="fill: var(--color6, #b2b0b0)" d="M160 16c0 8.837-7.163 16-16 16s-16-7.163-16-16c0-8.837 7.163-16 16-16s16 7.163 16 16z"></path>
<path fill="#cdcbcb" style="fill: var(--color7, #cdcbcb)" d="M224 16c0 8.837-7.163 16-16 16s-16-7.163-16-16c0-8.837 7.163-16 16-16s16 7.163 16 16z"></path>
<path fill="#e2e1e1" style="fill: var(--color8, #e2e1e1)" d="M288 16c0 8.837-7.163 16-16 16s-16-7.163-16-16c0-8.837 7.163-16 16-16s16 7.163 16 16z"></path>
<path fill="#eee" style="fill: var(--color9, #eee)" d="M352 16c0 8.837-7.163 16-16 16s-16-7.163-16-16c0-8.837 7.163-16 16-16s16 7.163 16 16z"></path>
<path fill="#f7f7f7" style="fill: var(--color10, #f7f7f7)" d="M416 16c0 8.837-7.163 16-16 16s-16-7.163-16-16c0-8.837 7.163-16 16-16s16 7.163 16 16z"></path>
</symbol>
<symbol id="icon-facebook" viewBox="0 0 32 32">
<path fill="#e5e5e5" style="fill: var(--color11, #e5e5e5)" d="M0 0h32v32h-32v-32z"></path>
<path fill="#fff" style="fill: var(--color3, #fff)" d="M-80.64-7386.88h460.8v7548.16h-460.8v-7548.16z"></path>
<path fill="#00adee" style="fill: var(--color12, #00adee)" d="M-80.64-107.52h460.8v268.8h-460.8v-268.8z"></path>
<path fill="#fff" style="fill: var(--color3, #fff)" d="M16 0c8.837 0 16 7.164 16 16 0 8.837-7.163 16-16 16s-16-7.163-16-16c0-8.836 7.163-16 16-16z"></path>
<path fill="#00adee" style="fill: var(--color12, #00adee)" d="M17.948 11.015h2.062v-3.046h-2.424v0.011c-2.937 0.104-3.539 1.755-3.592 3.489h-0.006v1.521h-2v2.983h2v7.996h3.014v-7.996h2.469l0.477-2.983h-2.945v-0.919c0-0.586 0.39-1.056 0.945-1.056z"></path>
</symbol>
<symbol id="icon-flag-icon" viewBox="0 0 32 32">
<path fill="#00adee" style="fill: var(--color12, #00adee)" d="M19.2 8l-0.533-2.667h-12v22.667h2.667v-9.333h7.467l0.533 2.667h9.333v-13.333h-7.467z"></path>
</symbol>
<symbol id="icon-hd-icon" viewBox="0 0 32 32">
<path fill="#00adee" style="fill: var(--color12, #00adee)" d="M25.333 4h-18.667c-1.48 0-2.667 1.2-2.667 2.667v18.667c0 1.467 1.187 2.667 2.667 2.667h18.667c1.467 0 2.667-1.2 2.667-2.667v-18.667c0-1.467-1.2-2.667-2.667-2.667zM14.667 20h-2v-2.667h-2.667v2.667h-2v-8h2v3.333h2.667v-3.333h2v8zM17.333 12h5.333c0.733 0 1.333 0.6 1.333 1.333v5.333c0 0.733-0.6 1.333-1.333 1.333h-5.333v-8zM19.333 18h2.667v-4h-2.667v4z"></path>
</symbol>
<symbol id="icon-instagram" viewBox="0 0 32 32">
<path fill="#fff" style="fill: var(--color3, #fff)" d="M16 0c8.836 0 16 7.164 16 16s-7.164 16-16 16c-8.836 0-16-7.164-16-16s7.163-16 16-16z"></path>
<path fill="#00adee" style="fill: var(--color12, #00adee)" d="M21.521 6.998h-11.045c-1.919 0-3.479 1.561-3.479 3.479v11.046c0 1.919 1.561 3.479 3.479 3.479h11.046c1.919 0 3.479-1.561 3.479-3.479v-11.046c-0-1.918-1.561-3.479-3.48-3.479zM22.617 9.011l0.394-0.001v2.988l-3.010 0.010-0.010-2.988 2.626-0.009zM15.999 12.988c2.497 0 3.012 2.344 3.012 3.013 0 1.659-1.352 3.011-3.012 3.011s-3.012-1.352-3.012-3.011c-0.001-0.669 0.515-3.013 3.012-3.013zM23.028 21.305c0 0.951-0.773 1.725-1.726 1.725h-10.64c-0.952 0-1.726-0.773-1.726-1.725v-7.309h2.5c-0.232 0.571-0.363 1.351-0.363 2.005 0 2.714 2.208 4.923 4.923 4.923s4.922-2.209 4.922-4.923c0-0.654-0.131-1.434-0.362-2.005h2.47v7.309h0.002z"></path>
</symbol>
<symbol id="icon-logo" viewBox="0 0 32 32">
<path fill="#00adee" style="fill: var(--color12, #00adee)" d="M0.626 19.779c0-6.404 5.192-11.596 11.596-11.596s11.596 5.192 11.596 11.596c0 6.405-5.192 11.596-11.596 11.596s-11.596-5.192-11.596-11.596z"></path>
<path fill="#fff" style="fill: var(--color3, #fff)" d="M16.574 30.53l-4.342-2.656v-4.023l3.625-2.633 4.23 0.949 0.843 5.268-4.356 3.096z"></path>
<path fill="#fff" style="fill: var(--color3, #fff)" d="M23.744 18.478l-3.657 3.689-4.23-0.95-1.384-4.262 2.614-4.023 5.143 0.987 1.514 4.558z"></path>
<path fill="#fff" style="fill: var(--color3, #fff)" d="M8.283 30.689l3.928-2.815v-4.023l-3.625-2.634-4.23 0.95-0.639 5.494 4.566 3.028z"></path>
<path fill="#fff" style="fill: var(--color3, #fff)" d="M0.705 18.419l3.65 3.748 4.23-0.95 1.385-4.262-2.614-4.023-5.13 0.964-1.521 4.522z"></path>
<path fill="#fff" style="fill: var(--color3, #fff)" d="M9.969 8.402l-2.614 4.531 2.614 4.023h4.503l2.614-4.023-2.614-4.531h-4.504z"></path>
<path fill="#334382" style="fill: var(--color13, #334382)" d="M1.652 13.649c-0.821 1.41-1.367 2.999-1.567 4.692-0.001 0.005-0.001 0.011-0.002 0.016-0.054 0.466-0.083 0.94-0.083 1.421 0 3.174 1.217 6.070 3.208 8.245 0.032 0.044 0.069 0.085 0.112 0.12 1.293 1.376 2.901 2.453 4.707 3.115 0.032 0.015 0.066 0.027 0.101 0.036 1.281 0.457 2.658 0.706 4.094 0.706 1.601 0 3.131-0.31 4.534-0.872 0.038-0.012 0.075-0.027 0.11-0.045 1.725-0.711 3.252-1.806 4.476-3.177 0.040-0.035 0.076-0.075 0.106-0.119 1.865-2.146 2.996-4.947 2.996-8.008 0-0.459-0.026-0.912-0.076-1.357-0-0.006-0.001-0.011-0.002-0.016-0.091-0.809-0.261-1.594-0.503-2.348l6.565-6.565c0.244-0.244 0.244-0.64 0-0.884-0.122-0.122-0.282-0.183-0.442-0.183s-0.32 0.061-0.442 0.183l-6.171 6.171c-0.172-0.382-0.363-0.753-0.572-1.113-0.019-0.043-0.043-0.083-0.071-0.121-1.549-2.602-4.037-4.582-6.992-5.472l4.403-4.403c0.244-0.244 0.244-0.64 0-0.884-0.122-0.122-0.282-0.183-0.442-0.183s-0.32 0.061-0.442 0.183l-4.949 4.949c-0.678-0.117-1.375-0.179-2.086-0.179-4.452 0-8.355 2.393-10.492 5.96-0.031 0.041-0.058 0.084-0.078 0.132zM7.060 13.624l2.224 3.422-1.182 3.639-3.542 0.795-3.195-3.281c0.194-1.341 0.632-2.604 1.266-3.743l4.429-0.832zM15.16 17.046l2.223-3.42 4.443 0.852c0.636 1.149 1.073 2.423 1.261 3.776l-3.199 3.227-3.545-0.796-1.182-3.639zM21.319 25.905l-0.564-3.524 2.436-2.457c-0.029 2.212-0.715 4.268-1.872 5.981zM14.019 17.581l1.104 3.398-2.89 2.1-2.89-2.1 1.104-3.398h3.572zM1.252 19.875l2.449 2.515-0.433 3.722c-1.252-1.766-1.996-3.916-2.016-6.236zM4.372 27.435l0.553-4.756 3.522-0.791 3.139 2.28v3.384l-3.392 2.431c-1.45-0.575-2.75-1.45-3.822-2.549zM9.684 30.453l2.564-1.838 2.858 1.749c-0.92 0.251-1.887 0.386-2.885 0.386-0.873 0-1.723-0.103-2.538-0.297zM16.623 29.827l-3.765-2.304v-3.354l3.138-2.28 3.541 0.795 0.728 4.548c-1.017 1.097-2.254 1.986-3.642 2.596zM20.859 13.021l-3.372-0.647-1.717-2.977c2.029 0.695 3.792 1.969 5.090 3.625zM14.077 8.965l2.278 3.949-2.221 3.417h-3.825l-2.221-3.417 2.278-3.948c0.604-0.103 1.223-0.158 1.856-0.158s1.252 0.054 1.855 0.157zM8.674 9.396l-1.717 2.976-3.359 0.631c1.297-1.647 3.054-2.914 5.076-3.607z"></path>
<path fill="#334382" style="fill: var(--color13, #334382)" d="M23.392 9.492l8.424-8.425c0.244-0.244 0.244-0.64 0-0.884-0.122-0.122-0.282-0.183-0.442-0.183s-0.32 0.061-0.442 0.183l-8.425 8.425c-0.244 0.244-0.244 0.64 0 0.884s0.64 0.244 0.884 0z"></path>
<path fill="#334382" style="fill: var(--color13, #334382)" d="M21.616 1.937c0.164 0 0.325-0.067 0.442-0.183s0.183-0.277 0.183-0.442c0-0.164-0.067-0.325-0.183-0.441s-0.277-0.184-0.442-0.184c-0.165 0-0.326 0.067-0.442 0.184s-0.183 0.277-0.183 0.441c0 0.165 0.067 0.326 0.183 0.442s0.277 0.183 0.442 0.183z"></path>
</symbol>
<symbol id="icon-nbc-sports" viewBox="0 0 38 32">
<path fill="#cecece" style="fill: var(--color14, #cecece)" d="M12.68 7.589c-0.609-0.423-0.9-0.569-1.549-0.569-0.556 0-1.059 0.265-1.429 0.635s-0.582 0.873-0.582 1.442c0 0.556 0.212 1.058 0.582 1.429s0.874 0.648 1.429 0.648h6.883l-5.334-3.586z"></path>
<path fill="#4e5353" style="fill: var(--color15, #4e5353)" d="M15.009 4.334c-0.278-0.688-0.437-0.979-0.966-1.336-0.463-0.317-1.032-0.384-1.548-0.278-0.516 0.093-0.966 0.397-1.284 0.86s-0.424 1.005-0.331 1.521c0.106 0.516 0.357 1.005 0.834 1.323l5.996 4.088-2.7-6.179z"></path>
<path fill="#333939" style="fill: var(--color16, #333939)" d="M18.729 2.813c0.119-0.714 0.146-1.045-0.119-1.64-0.225-0.516-0.675-0.86-1.165-1.045s-1.032-0.172-1.562 0.066c-0.516 0.225-0.887 0.622-1.072 1.111s-0.225 1.058 0.013 1.575l2.938 6.748 0.966-6.814z"></path>
<path fill="#adacac" style="fill: var(--color17, #adacac)" d="M25.293 7.589c0.609-0.423 0.9-0.569 1.548-0.569 0.57 0 1.059 0.265 1.429 0.635s0.583 0.873 0.583 1.442c0 0.556-0.199 1.058-0.569 1.429-0.384 0.37-0.874 0.648-1.443 0.648h-6.869l5.321-3.586z"></path>
<path fill="#8e8f8f" style="fill: var(--color18, #8e8f8f)" d="M22.977 4.334c0.265-0.688 0.424-0.979 0.953-1.336 0.477-0.317 1.032-0.384 1.548-0.278 0.516 0.093 0.98 0.397 1.297 0.86s0.424 1.005 0.318 1.521c-0.093 0.516-0.357 1.005-0.821 1.323l-5.996 4.088 2.7-6.179z"></path>
<path fill="#4e5353" style="fill: var(--color15, #4e5353)" d="M23.163 1.304c-0.185-0.489-0.556-0.886-1.072-1.111-0.516-0.238-1.059-0.251-1.549-0.066s-0.94 0.529-1.178 1.045c-0.185 0.423-0.225 0.714-0.185 1.111v0.026l0.556 0.013c0.318 0.013 0.477 0.093 0.080 0.265-0.145 0.106-0.556 0.172-0.463 0.9l0.874 6.139 2.938-6.748c0.225-0.516 0.185-1.085 0-1.575z"></path>
<path fill="#000" style="fill: var(--color19, #000)" d="M23.679 19.021c0 2.090-1.707 2.236-2.343 2.236-0.437 0-4.58 0.053-4.58 0.053v-8.851h4.037c1.271 0 2.25 1.005 2.25 2.223s-0.635 1.945-1.125 1.945c0 0 1.761 0.291 1.761 2.395z"></path>
<path fill="#fff" style="fill: var(--color3, #fff)" d="M19.086 14.072v1.64h1.178c0.834 0 0.874-1.64 0-1.64h-1.178zM19.086 17.579v1.892h1.681c0.966 0 1.019-1.892 0-1.892h-1.681z"></path>
<path fill="#000" style="fill: var(--color19, #000)" d="M9.371 20.277c-0.569-0.45-1.244-0.688-2.435-0.516v1.548h2.409c-0.146-0.093-0.199-0.225-0.225-0.318-0.066-0.251 0.080-0.476 0.199-0.648 0.013-0.026 0.026-0.052 0.053-0.066zM7.769 17.962c0.701 0 1.244 0.119 1.655 0.304v-2.394l4.249 5.451 0.013-0.013h2.488v-8.878h-2.502v5.451l-4.249-5.451h-2.488v5.57c0.277-0.026 0.555-0.039 0.834-0.040zM30.72 21.151v-0.476h-0.013c-0.132 0.212-0.278 0.45-0.424 0.688 0.148-0.065 0.294-0.136 0.437-0.212zM28.126 21.693c0.119-0.185 0.251-0.384 0.371-0.582-0.477 0.106-0.768 0.172-0.9 0.212-0.344 0.106-0.556-0.066-0.622-0.132-0.159-0.159-0.199-0.384-0.119-0.622 0.093-0.265 0.357-0.569 0.821-0.648 0.516-0.079 1.098-0.198 1.813-0.37 0.053-0.079 0.106-0.159 0.159-0.251-0.265 0.106-0.543 0.145-0.834 0.145-0.327 0-0.651-0.064-0.953-0.189s-0.577-0.308-0.808-0.539-0.414-0.505-0.539-0.807c-0.125-0.302-0.189-0.626-0.189-0.952 0-1.349 1.112-2.461 2.488-2.461 0.767 0 1.443 0.344 1.906 0.886v-2.501c-0.662-0.357-1.416-0.556-2.224-0.556-2.594 0-4.699 2.104-4.699 4.683 0 2.474 1.906 4.499 4.328 4.684z"></path>
<path fill="#333939" style="fill: var(--color16, #333939)" d="M37.947 18.769c-0.146-0.145-0.291-0.437-1.125-0.291-0.701 0.119-4.342 0.807-5.916 1.138 0.080-0.158 0.159-0.304 0.198-0.41 0.397-0.873-0.185-1.125-0.635-0.489-0.119 0.185-0.411 0.622-0.755 1.164-0.86 0.199-1.456 0.318-1.972 0.397-0.635 0.106-0.741 0.834-0.251 0.688 0.238-0.066 0.927-0.212 1.774-0.383-0.754 1.191-1.628 2.58-1.919 3.069-0.49 0.834-1.76 1.667-2.448 2.011-0.675 0.331-0.874 0.093-0.437-0.635 0.437-0.741 0.834-1.469 1.125-1.866 0.291-0.384 0-0.529-0.291-0.437 0 0 0.344-1.217-0.397-1.217-0.728 0-1.019 0.529-1.31 0.873-0.278 0.331-1.218 1.35-2.184 1.455 0.212-0.939-0.411-1.111-0.411-1.111s0.49-1.019-0.979-0.979c-0.49 0.013-1.509 0.344-2.197 1.138-0.199 0.027-0.529 0.119-0.913 0.423-0.688 0.543-1.76 1.323-2.343 1.614 0 0 0.688-0.926 0.688-1.759 0-0.82-0.45-0.847-1.125-0.847-0.569 0-1.549 0.662-2.488 1.641 0.053-0.225 0.318-1.614-0.397-1.574-0.41 0.027-0.596 0.384-0.675 0.794-0.397 0.053-1.641 0.265-3.454 1.125-0.622-0.463-1.747-0.622-3.058-0.741-1.999-0.199-2.832-0.291-2.832-0.979s1.906-2.143 3.958-2.778c2.329-0.728 3.521-0.596 4.54 0.291 0.291 0.238-0.53 0.728-0.146 0.926 0.397 0.198 0.887 0 0.834-0.781s-0.49-1.905-2.634-1.905c-2.158 0-5.572 0.979-7.333 3.903-0.437 0.727 0.49 1.707 2.197 1.852 1.138 0.106 2.621 0.318 3.388 0.781-0.040 0.013-0.080 0.040-0.106 0.053-2.938 1.667-5.916 2.977-5.916 4.445 0 0.688 0.384 0.887 1.509 0.887s6.115-2.302 6.115-4.895c0-0.278-0.066-0.516-0.199-0.714 1.046-0.463 2.091-0.834 3.031-0.992l0.040-0.093c-0.026 0.265-0.026 0.503-0.040 0.674-0.026 0.225-0.159 0.847-0.331 1.561-1.125 1.456-2.488 3.374-2.607 4.406-0.146 1.363 0.053 1.799 0.635 1.799 0.53 0 1.085-0.185 2.766-5.636 0.119 0.344 0.476 0.635 1.045 0.556 0.781-0.093 2.25-0.529 3.613-1.746 1.099-0.979 1.403-1.23 1.694-1.23-0.040 0.147-0.067 0.298-0.079 0.45-0.146 1.905 0.635 2.090 1.178 2.143 0.516 0.053 2.197-0.463 2.885-2.236 0.318 0.066 1.072 0.093 2.078-0.886 1.377-1.323 1.231-0.781 1.032-0.45-0.199 0.344-1.324 1.76-0.927 2.739 0.384 0.979 1.019 1.125 2.29 0.199s1.76-1.363 1.76-1.363-0.093 1.363 1.271 1.363c0.834 0 1.76-0.728 2.793-1.76 1.019-1.019 1.707-1.998 2.144-1.998 0 0 0.635 1.363-0.145 2.197-0.649 0.674-0.861 0.86-1.218 0.688-0.596-0.304-1.469 0.145-0.94 0.529 0.543 0.397 0.887 0.886 1.959 0.145 1.072-0.728 2.343-1.799 3.415-2.778 0.98-0.886 0.199-0.979-0.384-0.291-0.437 0.503-1.761 1.363-1.761 1.363s0.397-1.614-0.49-2.686c0 0-0.384-1.032-0.926 0.053 0 0-1.654 1.945-2.29 2.58-1.377 1.376-3.64 1.799-2.793 0.198 0.318-0.609 1.549-2.487 2.343-3.797 0.622-0.119 1.258-0.251 1.813-0.357 1.761-0.344 4.937-0.781 5.427-0.781s0.383-0.292 0.238-0.437z"></path>
<path fill="#fff" style="fill: var(--color3, #fff)" d="M6.499 25.755c-0.437 1.508-3.375 3.612-4.5 3.758s-1.363-0.49 0.106-1.654c0.834-0.675 2.475-1.786 4.275-2.699 0.132 0.172 0.185 0.37 0.119 0.595zM9.239 28.732c-0.49 1.217-0.887 1.998-1.231 1.905-0.331-0.093 0.132-1.786 1.668-3.242-0.146 0.516-0.304 0.992-0.437 1.337zM14.268 23.85c-0.252 0.926-1.271 1.958-1.853 1.812-0.437-0.119-0.993-0.119-1.297 0.066 0-0.013 0-0.027 0.013-0.040 0.596-0.9 0.993-1.707 1.76-2.13 1.231-0.688 1.615-0.635 1.377 0.291zM19.576 25.609c-0.675 0.291-1.496 0.529-1.496-0.106s0-1.654 1.006-2.342l0.199-0.344c0 0 0.688 0.251 1.178 0.145 0 0 0.093 0.596 0.291 0.834 0 0-0.49 1.521-1.178 1.813z"></path>
</symbol>
<symbol id="icon-notifications" viewBox="0 0 32 32">
<path fill="#00adee" style="fill: var(--color12, #00adee)" d="M10.107 5.44l-1.907-1.907c-3.2 2.44-5.307 6.2-5.493 10.467h2.667c0.2-3.533 2.013-6.627 4.733-8.56zM26.627 14h2.667c-0.2-4.267-2.307-8.027-5.493-10.467l-1.893 1.907c2.693 1.933 4.52 5.027 4.72 8.56zM24 14.667c0-4.093-2.187-7.52-6-8.427v-0.907c0-1.107-0.893-2-2-2s-2 0.893-2 2v0.907c-3.827 0.907-6 4.32-6 8.427v6.667l-2.667 2.667v1.333h21.333v-1.333l-2.667-2.667v-6.667zM16 29.333c0.187 0 0.36-0.013 0.533-0.053 0.867-0.187 1.573-0.773 1.92-1.573 0.133-0.32 0.2-0.667 0.2-1.040h-5.333c0.013 1.467 1.2 2.667 2.68 2.667z"></path>
</symbol>
<symbol id="icon-people" viewBox="0 0 32 32">
<path fill="#00adee" style="fill: var(--color12, #00adee)" d="M21.334 14.667c2.213 0 3.987-1.787 3.987-4s-1.773-4-3.987-4c-2.213 0-4 1.787-4 4s1.787 4 4 4zM10.667 14.667c2.213 0 3.987-1.787 3.987-4s-1.773-4-3.987-4c-2.213 0-4 1.787-4 4s1.787 4 4 4zM10.667 17.333c-3.107 0-9.333 1.56-9.333 4.667v3.333h18.667v-3.333c0-3.107-6.227-4.667-9.333-4.667zM21.334 17.333c-0.387 0-0.827 0.027-1.293 0.067 1.547 1.12 2.627 2.627 2.627 4.6v3.333h8v-3.333c0-3.107-6.227-4.667-9.333-4.667z"></path>
</symbol>
<symbol id="icon-phone-screen" viewBox="0 0 32 32">
<path fill="#00adee" style="fill: var(--color12, #00adee)" d="M24 1.347l-13.333-0.013c-1.467 0-2.667 1.2-2.667 2.667v4h2.667v-1.333h13.333v18.667h-13.333v-1.333h-2.667v4c0 1.467 1.2 2.667 2.667 2.667h13.333c1.467 0 2.667-1.2 2.667-2.667v-24c0-1.467-1.2-2.653-2.667-2.653zM13.333 20h2.667v-9.333h-9.333v2.667h4.787l-7.453 7.453 1.88 1.88 7.453-7.453v4.787z"></path>
</symbol>
<symbol id="icon-poll" viewBox="0 0 32 32">
<path fill="#00adee" style="fill: var(--color12, #00adee)" d="M25.333 4h-18.667c-1.467 0-2.667 1.2-2.667 2.667v18.667c0 1.467 1.2 2.667 2.667 2.667h18.667c1.467 0 2.667-1.2 2.667-2.667v-18.667c0-1.467-1.2-2.667-2.667-2.667zM12 22.667h-2.667v-9.333h2.667v9.333zM17.333 22.667h-2.667v-13.333h2.667v13.333zM22.667 22.667h-2.667v-5.333h2.667v5.333z"></path>
</symbol>
<symbol id="icon-sky-sports" viewBox="0 0 198 32">
<path fill="#828282" style="fill: var(--color2, #828282)" d="M58.68 0.001h-55.755c-1.609 0-2.925 1.308-2.925 2.906v26.188c0 1.598 1.316 2.905 2.925 2.905l55.755-0.004v-31.995z"></path>
<path fill="#dadada" style="fill: var(--color20, #dadada)" opacity="0.8" d="M58.68 0.674h-56.379c0 0 1.232 6.601 9.007 12.136 0 0 3.98 2.978 6.573 2.952h40.798v-15.088h0.001z"></path>
<path fill="#a4a1a1" style="fill: var(--color21, #a4a1a1)" d="M58.68 31.994l136.045-0.002c1.606 0 2.922-1.307 2.922-2.905v-26.181c0-1.599-1.317-2.906-2.922-2.906h-136.045v31.994z"></path>
<path fill="#e3e8ed" style="fill: var(--color22, #e3e8ed)" opacity="0.8" d="M58.68 0.674h136.648c0 0-1.232 6.601-9.005 12.136 0 0-3.982 2.978-5.654 2.952h-121.989l-0-15.088z"></path>
<path fill="#fff" style="fill: var(--color3, #fff)" d="M38.754 29.718c0.383 0.196 1.16 0.428 2.134 0.454 1.678 0.035 2.591-0.603 3.269-2.097l8.993-19.937c-0.371-0.196-1.197-0.417-1.863-0.43-1.159-0.024-2.714 0.209-3.7 2.563l-2.906 6.828-5.712-9.244c-0.37-0.11-1.27-0.27-1.925-0.27-2.022 0-3.145 0.735-4.317 1.999l-5.55 6.033 4.465 6.987c0.826 1.275 1.913 1.925 3.676 1.925 1.16 0 2.121-0.268 2.565-0.477l-5.378-8.056 3.811-4.022 6.254 9.759-3.81 7.983h-0.007zM26.957 22.176c0 1.471-0.58 2.319-3.466 2.319-0.382 0-0.715-0.026-1.036-0.075v-19.494c0-1.484 0.505-3.029 3.416-3.029 0.371 0 0.74 0.038 1.086 0.11v20.169zM21.004 19.234c0 2.746-1.801 4.744-5.465 5.137-2.652 0.283-6.488-0.049-8.313-0.258-0.062-0.295-0.111-0.662-0.111-0.957 0-2.392 1.295-2.942 2.516-2.942 1.271 0 3.269 0.22 4.75 0.22 1.64 0 2.133-0.552 2.133-1.078 0-0.688-0.653-0.968-1.924-1.214l-3.479-0.662c-2.886-0.553-4.428-2.538-4.428-4.648 0-2.562 1.825-4.708 5.415-5.1 2.714-0.295 6.019 0.036 7.833 0.257 0.061 0.307 0.098 0.6 0.098 0.92 0 2.391-1.27 2.906-2.492 2.906-0.938 0-2.392-0.172-4.058-0.172-1.69 0-2.393 0.466-2.393 1.030 0 0.601 0.665 0.846 1.727 1.030l3.318 0.614c3.404 0.625 4.872 2.55 4.872 4.917zM84.192 20.561c0-3.432-2.248-5.101-5.827-5.888l-6.271-1.416c-1.14-0.252-2.090-0.599-2.090-1.732 0-1.228 0.982-1.7 3.611-1.7 3.104 0 3.833 0.157 6.652 0.157 1.299 0 2.628-0.599 2.628-3.148 0-0.316-0.030-0.662-0.094-0.977-1.901-0.157-5.29-0.346-9.47-0.346-6.303 0-8.711 2.708-8.711 6.171 0 3.243 2.059 5.039 5.701 5.888l6.27 1.448c1.457 0.345 2.25 0.976 2.25 1.889 0 1.228-1.109 1.701-3.737 1.701-3.103 0-4.529-0.22-7.348-0.22-1.299 0-2.628 0.596-2.628 3.147 0 0.315 0.032 0.66 0.094 0.976 1.902 0.188 5.986 0.409 10.166 0.409 6.305-0.001 8.808-2.676 8.808-6.36h-0.004zM135.944 15.020v-5.257h4.972c2.123 0 3.801 0.314 3.801 2.518 0 1.856-1.267 2.739-3.801 2.739h-4.972zM135.912 19.175h2.628l5.075 6.013c0.947 1.165 1.867 1.763 4.022 1.763 1.457 0 2.438-0.188 3.227-0.568l-6.592-7.586c3.707-0.787 5.575-3.181 5.575-6.707 0-4.345-2.661-6.485-8.043-6.485l-7.696-0.031c-2.502 0.094-3.327 0.944-3.327 3.211v17.82c0.379 0.062 0.825 0.092 1.268 0.092 3.166 0 3.895-0.911 3.895-2.549l-0.024-4.975h-0.006v0zM91.632 15.587v-5.793h5.162c2.567 0 3.834 0.944 3.834 2.803 0 1.984-1.268 2.991-3.834 2.991l-5.162-0zM86.469 26.607c0.381 0.063 0.825 0.093 1.266 0.093 3.168 0 3.896-0.911 3.896-2.549v-4.313h5.384c5.86 0 8.773-2.518 8.773-7.241 0-4.565-2.914-6.99-8.424-6.99h-7.57c-2.533 0-3.325 0.976-3.325 3.211v17.789zM122.926 15.839c0 2.425-0.411 4.123-1.235 5.132-0.792 1.038-2.091 1.511-3.864 1.511-1.806-0.032-3.102-0.535-3.928-1.511-0.822-0.976-1.235-2.676-1.235-5.132 0-2.424 0.444-4.124 1.267-5.1 0.824-1.008 2.121-1.48 3.895-1.48s3.041 0.472 3.864 1.48c0.822 0.976 1.236 2.676 1.236 5.1zM117.824 26.669c3.325 0 5.892-0.787 7.698-2.392 1.802-1.575 2.724-4.409 2.724-8.438-0.034-3.966-0.951-6.737-2.82-8.375-1.869-1.606-4.402-2.424-7.603-2.424-3.198 0-5.733 0.818-7.601 2.424-1.868 1.638-2.788 4.409-2.82 8.375 0 4.029 0.919 6.863 2.725 8.438 1.806 1.606 4.374 2.392 7.698 2.392h-0.001zM163.467 9.921h4.15c1.362 0 2.754-0.63 2.754-3.308 0-0.314-0.031-0.692-0.094-1.006h-16.12c-1.362 0-2.757 0.63-2.757 3.305 0 0.316 0.032 0.692 0.097 1.009h6.808v16.685c0.381 0.062 0.824 0.092 1.268 0.092 3.164 0 3.895-0.911 3.895-2.549v-14.229zM190.608 20.561c0-3.432-2.251-5.101-5.828-5.888l-6.271-1.416c-1.141-0.252-2.090-0.599-2.090-1.732 0-1.228 0.981-1.7 3.609-1.7 3.105 0 3.834 0.157 6.651 0.157 1.3 0 2.63-0.599 2.63-3.148 0-0.316-0.029-0.662-0.093-0.977-1.901-0.157-5.29-0.346-9.472-0.346-6.301 0-8.71 2.708-8.71 6.171 0 3.243 2.058 5.039 5.702 5.888l6.271 1.448c1.458 0.345 2.249 0.976 2.249 1.889 0 1.228-1.11 1.701-3.736 1.701-3.105 0-4.529-0.22-7.351-0.22-1.299 0-2.629 0.596-2.629 3.147 0 0.315 0.032 0.66 0.096 0.976 1.899 0.188 5.986 0.409 10.167 0.409 6.306-0.001 8.808-2.676 8.808-6.36h-0.004z"></path>
</symbol>
<symbol id="icon-sports" viewBox="0 0 102 32">
<path d="M58.603 22.328h5.395l2.097-8.954c0.334-1.214 0.667-2.112 1.127-2.546 1.098-1.032 4.048-0.871 4.048-0.871l1.194-5.062c-1.872 0.010-4.771-0.026-6.57 0.477-1.040 0.291-2.138 1.107-2.762 1.771-1.139 1.213-1.82 3.722-1.82 3.722l-2.708 11.463zM11.945 9.476h19.72c1.15 0.030 2.072 0.481 2.497 1.087 0.518 0.738 1.070 1.839 0.219 3.915-0.909 2.217-2.534 2.881-4.229 2.932h-3.531l1.456-6.238h-5.43l-4.856 20.828h5.401l2.264-9.677c0 0 1.57 0.007 3.603 0.008 1.571-0.034 3.414-0.223 5.153-1.149 1.88-1.001 3.164-2.671 3.968-4.166 0.742-1.38 1.22-3.639 1.332-4.883 0.098-1.088 0.234-2.916-1.070-4.697-0.593-0.811-1.894-1.804-3.211-2.121-1.438-0.346-3.443-0.365-3.443-0.365h-20.527c-3.159 0.030-4.841 1.147-5.78 2.129-1.015 1.062-1.534 2.523-1.529 3.796 0.005 1.206 0.318 2.488 1.004 3.261 0.624 0.703 1.667 1.481 3.742 1.623h3.603c0 0 0.498 0.016 0.772 0.141 0.266 0.122 0.461 0.456 0.415 0.782-0.057 0.396-0.184 0.898-1.499 0.953h-10.249l-1.74 4.719h12.295c1.638-0.022 4.664-0.333 6.049-2.769 0.516-0.907 0.975-2.604 0.992-3.863 0.017-1.274-0.412-2.13-0.665-2.568-0.332-0.578-0.963-1.243-2.227-1.675-0.658-0.225-2.096-0.268-2.096-0.268h-3.385c-0.655 0-1.159-0.202-1.091-0.871 0.038-0.38 0.332-0.694 0.699-0.804 0.271-0.082 1.374-0.060 1.374-0.060zM50.948 8.55c-1.341 0.014-2.504 0.534-3.635 1.65-1.076 1.061-1.651 2.711-1.765 4.167-0.070 0.9 0.178 2.154 0.765 2.92 0.576 0.752 1.742 1.322 2.84 1.293 1.667-0.042 2.82-0.563 3.742-1.595 1.082-1.211 1.793-3.027 1.751-4.748-0.023-0.905-0.213-1.828-1-2.634-0.788-0.806-1.864-1.062-2.698-1.053l0.7-4.105c2.235-0.030 4.696 0.596 6.268 2.145 1.573 1.549 1.898 3.6 1.871 5.283-0.034 2.101-0.748 4.989-3.268 7.769-2.221 2.449-6.086 3.401-8.765 3.276s-4.66-0.991-6.114-2.525c-1.274-1.343-1.733-2.913-1.733-4.895 0-1.751 0.547-4.022 2.191-6.258 1.929-2.623 5.62-4.743 9.55-4.795l-0.7 4.104zM75.102 0h5.438l-1.18 4.98h4.127l-1.135 4.928h-4.127l-1.223 5.479c-0.196 1.116-0.007 1.685 0.612 2.062 0.255 0.155 1.114 0.223 1.114 0.223h11.749c1.311-0.022 2.251-0.143 2.293-1.034 0.045-0.916-1.069-0.893-1.069-0.893h-3.342c-1.747-0.089-3.211-0.581-3.909-1.34-0.603-0.656-1.157-1.63-1.114-3.529 0.049-2.143 1.157-3.662 1.638-4.131s2.257-1.809 4.833-1.764h12.194l-1.696 4.488h-10.002c-0.655 0.022-0.953 0.122-1.135 0.357-0.19 0.245-0.281 0.631-0.153 0.938 0.119 0.286 0.415 0.402 1.245 0.447h3.124c1.594 0.089 2.92 0.345 3.712 1.027 0.723 0.622 1.42 1.429 1.42 3.506 0 2.346-1.132 3.866-1.9 4.667-0.951 0.993-2.271 1.719-6.224 1.921h-14.5c-1.573-0.023-2.861 0.045-4.062-1.362s-0.793-3.164-0.677-4.147l3.952-16.823z"></path>
</symbol>
<symbol id="icon-style" viewBox="0 0 32 32">
<path fill="#00adee" style="fill: var(--color12, #00adee)" d="M3.373 26.2l1.787 0.747v-12.040l-3.24 7.813c-0.547 1.36 0.107 2.92 1.453 3.48zM29.373 21.267l-6.613-15.96c-0.413-1-1.387-1.613-2.413-1.64-0.347 0-0.707 0.053-1.053 0.2l-9.827 4.067c-1 0.413-1.613 1.373-1.64 2.4-0.013 0.36 0.053 0.72 0.2 1.067l6.613 15.96c0.413 1.013 1.4 1.627 2.44 1.64 0.347 0 0.693-0.067 1.027-0.2l9.813-4.067c1.36-0.56 2.013-2.12 1.453-3.467zM10.506 11.667c-0.733 0-1.333-0.6-1.333-1.333s0.6-1.333 1.333-1.333c0.733 0 1.333 0.6 1.333 1.333s-0.6 1.333-1.333 1.333zM7.84 26.333c0 1.467 1.2 2.667 2.667 2.667h1.933l-4.6-11.12v8.453z"></path>
</symbol>
<symbol id="icon-tune" viewBox="0 0 32 32">
<path fill="#00adee" style="fill: var(--color12, #00adee)" d="M4 22.667v2.667h8v-2.667h-8zM4 6.667v2.667h13.333v-2.667h-13.333zM17.333 28v-2.667h10.667v-2.667h-10.667v-2.667h-2.667v8h2.667zM9.333 12v2.667h-5.333v2.667h5.333v2.667h2.667v-8h-2.667zM28 17.333v-2.667h-13.333v2.667h13.333zM20 12h2.667v-2.667h5.333v-2.667h-5.333v-2.667h-2.667v8z"></path>
</symbol>
<symbol id="icon-twitter" viewBox="0 0 40 32">
<path fill="#03a9f4" style="fill: var(--color23, #03a9f4)" d="M40 3.788c-1.487 0.642-3.073 1.068-4.725 1.275 1.7-0.999 2.998-2.57 3.607-4.463-1.585 0.93-3.335 1.588-5.2 1.954-1.505-1.578-3.65-2.555-5.99-2.555-4.54 0-8.195 3.628-8.195 8.076 0 0.64 0.055 1.255 0.19 1.841-6.817-0.327-12.85-3.545-16.902-8.446-0.708 1.209-1.123 2.592-1.123 4.081 0 2.796 1.462 5.275 3.642 6.71-1.317-0.025-2.61-0.401-3.705-0.994 0 0.025 0 0.057 0 0.089 0 3.924 2.842 7.183 6.57 7.934-0.668 0.18-1.395 0.266-2.15 0.266-0.525 0-1.055-0.030-1.553-0.138 1.063 3.198 4.078 5.548 7.662 5.625-2.79 2.149-6.332 3.444-10.168 3.444-0.672 0-1.317-0.030-1.962-0.111 3.632 2.307 7.938 3.623 12.58 3.623 15.090 0 23.34-12.308 23.34-22.976 0-0.357-0.013-0.702-0.030-1.044 1.628-1.137 2.995-2.558 4.11-4.192z"></path>
</symbol>
<symbol id="icon-twitter-circle" viewBox="0 0 32 32">
<path fill="#fff" style="fill: var(--color3, #fff)" d="M16 0c8.837 0 16 7.164 16 16 0 8.837-7.163 16-16 16s-16-7.163-16-16c0-8.836 7.163-16 16-16z"></path>
<path fill="#00adee" style="fill: var(--color12, #00adee)" d="M26.002 10.779c-0.699 0.302-1.451 0.505-2.24 0.597 0.806-0.469 1.424-1.21 1.715-2.095-0.754 0.435-1.588 0.75-2.477 0.919-0.711-0.735-1.724-1.194-2.846-1.194-2.152 0-3.898 1.693-3.898 3.783 0 0.297 0.034 0.586 0.101 0.863-3.24-0.158-6.114-1.665-8.036-3.954-0.336 0.559-0.528 1.208-0.528 1.902 0 1.312 0.688 2.472 1.734 3.149-0.64-0.020-1.24-0.189-1.767-0.474v0.048c0 1.834 1.344 3.363 3.128 3.711-0.327 0.086-0.671 0.133-1.027 0.133-0.251 0-0.495-0.023-0.733-0.068 0.496 1.504 1.936 2.598 3.643 2.628-1.335 1.016-3.016 1.62-4.843 1.62-0.315 0-0.625-0.018-0.931-0.053 1.727 1.074 3.775 1.701 5.978 1.701 7.172 0 11.094-5.768 11.094-10.768l-0.011-0.49c0.76-0.532 1.421-1.198 1.944-1.958z"></path>
</symbol>
<symbol id="icon-video" viewBox="0 0 32 32">
<path fill="#00adee" style="fill: var(--color12, #00adee)" d="M28 4h-24c-1.48 0-2.667 1.187-2.667 2.667v16c0 1.467 1.187 2.667 2.667 2.667h6.667v2.667h10.667v-2.667h6.667c1.467 0 2.653-1.2 2.653-2.667l0.013-16c0-1.48-1.2-2.667-2.667-2.667zM28 22.667h-24v-16h24v16zM21.334 14.667l-9.333 5.333v-10.667l9.333 5.333z"></path>
</symbol>
<symbol id="icon-magnifying-glass" viewBox="0 0 32 32">
<path d="M10.5 0c-5.79 0-10.5 4.71-10.5 10.5s4.71 10.5 10.5 10.5c2.725 0 5.203-1.052 7.071-2.76 0.022 0.039 0.042 0.080 0.076 0.114l2.151 2.151c-0.18 0.304-0.282 0.648-0.282 1.011 0 0.534 0.208 1.036 0.586 1.414l8.485 8.485c0.377 0.377 0.879 0.585 1.413 0.585s1.036-0.208 1.414-0.586 0.586-0.88 0.586-1.414-0.208-1.036-0.586-1.414l-8.485-8.485c-0.634-0.634-1.659-0.729-2.42-0.299l-2.155-2.155c-0.034-0.034-0.074-0.054-0.114-0.076 1.708-1.868 2.76-4.346 2.76-7.071 0-5.79-4.71-10.5-10.5-10.5zM22.222 20.808l8.485 8.485c0.189 0.189 0.293 0.44 0.293 0.707s-0.104 0.518-0.293 0.707c-0.379 0.377-1.035 0.377-1.414 0l-8.485-8.485c-0.188-0.189-0.293-0.44-0.293-0.707s0.104-0.518 0.293-0.707c0.189-0.188 0.44-0.293 0.707-0.293s0.517 0.104 0.707 0.293zM10.5 20c-5.238 0-9.5-4.262-9.5-9.5s4.262-9.5 9.5-9.5 9.5 4.262 9.5 9.5-4.262 9.5-9.5 9.5zM10.5 3c-4.136 0-7.5 3.364-7.5 7.5s3.364 7.5 7.5 7.5 7.5-3.364 7.5-7.5-3.364-7.5-7.5-7.5zM10.5 17c-3.584 0-6.5-2.916-6.5-6.5s2.916-6.5 6.5-6.5 6.5 2.916 6.5 6.5-2.916 6.5-6.5 6.5z"></path>
</symbol>
</defs>
</svg>
